<?xml version="1.0" encoding="UTF-8" standalone="no"?>
<svg
   xmlns:dc="http://purl.org/dc/elements/1.1/"
   xmlns:cc="http://creativecommons.org/ns#"
   xmlns:rdf="http://www.w3.org/1999/02/22-rdf-syntax-ns#"
   xmlns:svg="http://www.w3.org/2000/svg"
   xmlns="http://www.w3.org/2000/svg"
   xmlns:sodipodi="http://sodipodi.sourceforge.net/DTD/sodipodi-0.dtd"
   xmlns:inkscape="http://www.inkscape.org/namespaces/inkscape"
   width="1000"
   height="500"
   viewBox="0 0 264.58333 132.29167"
   version="1.1"
   id="svg8"
   inkscape:version="1.0.2-2 (e86c870879, 2021-01-15)"
   sodipodi:docname="next.svg">
  <defs
     id="defs2" />
  <sodipodi:namedview
     id="base"
     pagecolor="#ffffff"
     bordercolor="#666666"
     borderopacity="1.0"
     inkscape:pageopacity="0.0"
     inkscape:pageshadow="2"
     inkscape:zoom="1.979899"
     inkscape:cx="103.16308"
     inkscape:cy="296.61802"
     inkscape:document-units="px"
     inkscape:current-layer="g878"
     inkscape:document-rotation="0"
     showgrid="false"
     units="px"
     inkscape:window-width="1920"
     inkscape:window-height="1051"
     inkscape:window-x="-9"
     inkscape:window-y="-9"
     inkscape:window-maximized="1" />
  <metadata
     id="metadata5">
    <rdf:RDF>
      <cc:Work
         rdf:about="">
        <dc:format>image/svg+xml</dc:format>
        <dc:type
           rdf:resource="http://purl.org/dc/dcmitype/StillImage" />
        <dc:title></dc:title>
      </cc:Work>
    </rdf:RDF>
  </metadata>
  <g
     inkscape:label="Layer 1"
     inkscape:groupmode="layer"
     id="layer1">
    <g
       id="g878"
       transform="translate(8.3154762,3.7797619)">
      <path
         id="path851"
         style="fill:none;stroke:#83bc61;stroke-width:13.2292;stroke-linecap:butt;stroke-linejoin:miter;stroke-miterlimit:4;stroke-dasharray:none;stroke-opacity:1"
         d="m 15.882727,35.343181 c 1.386483,7.377992 1.767383,3.034931 5.20212,26.099664 3.434735,23.064735 6.794085,33.744865 5.402415,22.605361 -1.39167,-11.139501 -5.951948,-21.97997 -5.728036,-28.295568 0.223914,-6.315599 11.705398,-17.341403 21.702497,-17.099311 9.9971,0.242092 11.92002,10.469698 12.461499,17.18315 1.423107,11.134174 0.218286,27.547865 -0.911782,37.213407"
         sodipodi:nodetypes="czzzzcc" />
    </g>
    <path
       id="path853"
       style="fill:none;stroke:#83bc61;stroke-width:13.2292;stroke-linecap:butt;stroke-linejoin:miter;stroke-miterlimit:4;stroke-dasharray:none;stroke-opacity:1"
       d="m 84.642108,70.589834 c 0,0 10.429456,-0.233556 14.964423,-2.467914 5.867419,-2.890852 14.935939,-6.893409 14.329279,-13.406135 -0.50622,-5.434479 -7.22777,-9.218937 -13.81735,-8.785741 -6.58958,0.433196 -13.557868,5.720467 -16.018761,11.900311 -2.42092,6.079463 -0.265531,13.91244 3.397207,19.335085 3.425056,5.070759 9.582186,8.518034 15.586404,9.698267 7.85581,1.544195 13.82446,-0.813295 23.67859,-4.026007"
       sodipodi:nodetypes="caazaaac" />
    <g
       id="g875"
       transform="translate(7.5595238,-0.37797619)"
       style="stroke:#83bc61;stroke-opacity:1">
      <path
         id="path855"
         style="fill:none;stroke:#83bc61;stroke-width:13.2292;stroke-linecap:butt;stroke-linejoin:miter;stroke-miterlimit:4;stroke-dasharray:none;stroke-opacity:1"
         d="m 126.43304,43.656248 c 6.05575,10.466754 14.34844,19.971713 22.67857,24.568454 8.33013,4.596741 13.58109,7.556769 20.42251,11.192556"
         sodipodi:nodetypes="czc" />
      <path
         id="path857"
         style="fill:none;stroke:#83bc61;stroke-width:13.2292;stroke-linecap:butt;stroke-linejoin:miter;stroke-miterlimit:4;stroke-dasharray:none;stroke-opacity:1"
         d="m 163.09672,42.900297 c -4.70822,3.975587 -7.83918,6.515851 -12.72792,12.093906 -4.88874,5.578055 -11.70656,14.544384 -14.86434,19.656094 -3.15778,5.11171 -5.4356,10.94332 -5.42924,14.836717"
         sodipodi:nodetypes="czzc" />
    </g>
    <g
       id="g871"
       transform="translate(3.4017859,-5.2916667)"
       style="stroke:#83bc61;stroke-opacity:1">
      <path
         id="path859"
         style="fill:none;stroke:#83bc61;stroke-width:13.2292;stroke-linecap:butt;stroke-linejoin:miter;stroke-miterlimit:4;stroke-dasharray:none;stroke-opacity:1"
         d="m 185.96428,32.505953 c -0.33898,8.300632 -0.67965,18.559944 -0.47247,27.592261 0.20718,9.032317 -0.50701,18.643134 8.48594,23.728655 8.99295,5.085521 13.5703,3.373684 18.37561,0.466834 4.80532,-2.906851 7.25079,-5.863645 7.25079,-5.863645"
         sodipodi:nodetypes="czzzc" />
      <path
         id="path861"
         style="fill:none;stroke:#83bc61;stroke-width:13.2292;stroke-linecap:butt;stroke-linejoin:miter;stroke-miterlimit:4;stroke-dasharray:none;stroke-opacity:1"
         d="m 184.0744,58.208332 c 10.2748,0.04261 14.66673,0.536578 20.63965,-1.864392 5.97292,-2.40097 9.26175,-5.29243 9.26175,-5.29243"
         sodipodi:nodetypes="czc" />
    </g>
  </g>
</svg>
