<?xml version="1.0" encoding="UTF-8"?>
<svg width="975" height="485" version="1.1" viewBox="0 0 975 485" xmlns="http://www.w3.org/2000/svg" xmlns:cc="http://creativecommons.org/ns#" xmlns:dc="http://purl.org/dc/elements/1.1/" xmlns:rdf="http://www.w3.org/1999/02/22-rdf-syntax-ns#">
 <metadata>
  <rdf:RDF>
   <cc:Work rdf:about="">
    <dc:format>image/svg+xml</dc:format>
    <dc:type rdf:resource="http://purl.org/dc/dcmitype/StillImage"/>
    <dc:title/>
   </cc:Work>
  </rdf:RDF>
 </metadata>
 <path id="sign" d="m193.11 7.9534h776.94v471.82h-776.94l-187.16-235.91z" fill="none" opacity=".995" stroke="#000" stroke-linejoin="round" stroke-width="7.9068"/>
 <g transform="translate(55.903 -10.328)">
  <g transform="translate(-112.9,-114.41)">
   <g id="word-prev" transform="translate(-370.97,204.08)" opacity=".997">
    <path id="prev-R" d="m894.42 60.394c-0.35722-14.794-34.034-15.8-29.161 4.0833 17.183 70.108 2.2752 113.02-16.007 167.21-5.481 16.249 23.645 24.125 27.804 5.2909 9.2959-42.094 12.938-67.299 16.439-86.398 4.2078-22.952 16.218-79.137 52.996-67.767 10.626 3.285 17.163 12.867 21.092 26.681 6.525 22.941 28.754 2.0661 28.239-11.799-10.407 8.7849-13.984 13.618-16.544-3.2136-8.1547-53.618-77.86-36.44-84.236 5.7855 0.27344-13.302-0.30172-26.582-0.62276-39.877z" color="#000000" color-rendering="auto" dominant-baseline="auto" image-rendering="auto" opacity="1" shape-rendering="auto" solid-color="#000000" stop-color="#000000" style="font-feature-settings:normal;font-variant-alternates:normal;font-variant-caps:normal;font-variant-east-asian:normal;font-variant-ligatures:normal;font-variant-numeric:normal;font-variant-position:normal;font-variation-settings:normal;inline-size:0;isolation:auto;mix-blend-mode:normal;shape-margin:0;shape-padding:0;text-decoration-color:#000000;text-decoration-line:none;text-decoration-style:solid;text-indent:0;text-orientation:mixed;text-transform:none;white-space:normal"/>
    <path id="prev-E" d="m1089.9 54.952c-53.404 3.5998-107.09 51.719-108.77 103.3-1.4213 43.744 30.254 77.725 68.176 81.407 20.609 2.0008 37.518-3.7808 53.466-14.482 20.428-13.707 52.598-51.221 43.798-78.125-15.468 38.095-45.264 60.713-54.99 65.177-43.916 20.154-87.129-7.7729-87.254-52.319-0.052-18.595 9.7239-42.34 27.912-57.332 27.598-22.747 70.38-39.471 78.61-17.609 18.456 49.026-60.579 65.943-81.281 59.767-19.491-5.8147-19.602 29.906 1.1221 25.733 26.664-5.3688 57.098-9.392 80.858-29.294 31.197-26.132 27.844-89.559-21.65-86.223z" color="#000000" color-rendering="auto" dominant-baseline="auto" image-rendering="auto" opacity="1" shape-rendering="auto" solid-color="#000000" stop-color="#000000" style="font-feature-settings:normal;font-variant-alternates:normal;font-variant-caps:normal;font-variant-east-asian:normal;font-variant-ligatures:normal;font-variant-numeric:normal;font-variant-position:normal;font-variation-settings:normal;inline-size:0;isolation:auto;mix-blend-mode:normal;shape-margin:0;shape-padding:0;text-decoration-color:#000000;text-decoration-line:none;text-decoration-style:solid;text-indent:0;text-orientation:mixed;text-transform:none;white-space:normal"/>
    <g id="prev-P">
     <path d="m745.02 125.12c0.23208-27.058 23.415-52.33 60.114-46.884 54.715 8.1195 41.72 151.1-20.517 136.93-29.671-6.755-31.169-25.508-37.061-37.765-1.3907 19.517 1.2359 42.622 16.995 52.891 35.321 23.017 78.254 7.9239 92.238-51.697 10.588-45.142 8e-3 -108.8-41.864-121.13-23.055-6.7898-54.276 2.2109-69.946 23.358 0 0 0.55167-0.96144 1.6714-23.102 0.55747-11.023-25.926-16.617-25.411 2.8173 1.9665 74.174 3.7796 25.869 1.2998 45.041-5.629 43.52-42.81 153.64-55.754 201.95-9.3079 34.743 3.0061 51.884 18.483 54.184 20.859 3.1003 33.252-14.621 36.979-44.62 6.467-52.056 19.023-144.18 22.771-191.98zm-17.917 24.171c-13.519 26.116-22.352 191.01-37.97 185.08-8.6844-3.3024 37.264-166.15 37.97-185.08z" color="#000000" color-rendering="auto" dominant-baseline="auto" image-rendering="auto" opacity="1" shape-rendering="auto" solid-color="#000000" stop-color="#000000" style="font-feature-settings:normal;font-variant-alternates:normal;font-variant-caps:normal;font-variant-east-asian:normal;font-variant-ligatures:normal;font-variant-numeric:normal;font-variant-position:normal;font-variation-settings:normal;inline-size:0;isolation:auto;mix-blend-mode:normal;shape-margin:0;shape-padding:0;text-decoration-color:#000000;text-decoration-line:none;text-decoration-style:solid;text-indent:0;text-orientation:mixed;text-transform:none;white-space:normal"/>
    </g>
    <g id="prev-V" transform="translate(-5.0508)" opacity=".995">
     <path d="m1245.1 81.879c-9.8131 73.316-34.38 101.43-75.124 136.57 19.986-41.716 14.186-116.96 13.484-162.08-0.2344-15.06-28.035-16.451-23.305 4.0441 8.6139 37.328 5.8022 111.07-12.309 170.65-3.5127 11.556 3.4842 24.057 23.948 8.1236 64.355-46.071 85.126-99.408 91.16-150.72 2.145-18.241 7.4067-27.305 27.839-39.167-17.682-5.7897-42.635 9.728-45.694 32.579z" color="#000000" color-rendering="auto" dominant-baseline="auto" image-rendering="auto" opacity="1" shape-rendering="auto" solid-color="#000000" stop-color="#000000" style="font-feature-settings:normal;font-variant-alternates:normal;font-variant-caps:normal;font-variant-east-asian:normal;font-variant-ligatures:normal;font-variant-numeric:normal;font-variant-position:normal;font-variation-settings:normal;inline-size:0;isolation:auto;mix-blend-mode:normal;shape-margin:0;shape-padding:0;text-decoration-color:#000000;text-decoration-line:none;text-decoration-style:solid;text-indent:0;text-orientation:mixed;text-transform:none;white-space:normal"/>
    </g>
   </g>
  </g>
 </g>
 <g fill="#008000">
  <path id="word-apple-leaf" d="m239.06 126.85c56.102-21.817 64.829 1.2467 64.829 1.2467s-20.571 28.674-64.829-1.2467z"/>
  <path d="m253.08 146.24c56.102-21.817 64.829 1.2467 64.829 1.2467s-20.571 28.674-64.829-1.2467z"/>
  <path d="m767.97 133.77c56.102-21.817 64.829 1.2467 64.829 1.2467s-20.571 28.674-64.829-1.2467z"/>
 </g>
</svg>
