<?xml version="1.0" encoding="UTF-8" standalone="no"?>
<svg
   xmlns:dc="http://purl.org/dc/elements/1.1/"
   xmlns:cc="http://creativecommons.org/ns#"
   xmlns:rdf="http://www.w3.org/1999/02/22-rdf-syntax-ns#"
   xmlns:svg="http://www.w3.org/2000/svg"
   xmlns="http://www.w3.org/2000/svg"
   xmlns:xlink="http://www.w3.org/1999/xlink"
   xmlns:sodipodi="http://sodipodi.sourceforge.net/DTD/sodipodi-0.dtd"
   xmlns:inkscape="http://www.inkscape.org/namespaces/inkscape"
   width="625"
   height="334"
   viewBox="0 0 625 334"
   version="1.1"
   id="svg8"
   inkscape:version="1.0.2-2 (e86c870879, 2021-01-15)"
   sodipodi:docname="prev.svg">
  <defs
     id="defs2">
    <linearGradient
       id="linearGradient1096"
       x1="568.98999"
       x2="577.15002"
       y1="-145.69"
       y2="-127.47"
       gradientTransform="matrix(1.3611,0,0,1.3611,-205.09,46.631)"
       gradientUnits="userSpaceOnUse">
      <stop
         stop-color="#f00"
         offset="0"
         id="stop2487" />
      <stop
         stop-color="#540000"
         offset="1"
         id="stop2489" />
    </linearGradient>
  </defs>
  <sodipodi:namedview
     id="base"
     pagecolor="#ffffff"
     bordercolor="#666666"
     borderopacity="1.0"
     inkscape:pageopacity="0.0"
     inkscape:pageshadow="2"
     inkscape:zoom="0.49497475"
     inkscape:cx="353.60423"
     inkscape:cy="633.77146"
     inkscape:document-units="px"
     inkscape:current-layer="word-prev"
     inkscape:document-rotation="0"
     showgrid="false"
     units="px"
     inkscape:window-width="1920"
     inkscape:window-height="1051"
     inkscape:window-x="-9"
     inkscape:window-y="-9"
     inkscape:window-maximized="1"
     scale-x="1"
     inkscape:snap-global="false"
     fit-margin-top="0"
     fit-margin-left="0"
     fit-margin-right="0"
     fit-margin-bottom="0"
     lock-margins="false" />
  <metadata
     id="metadata5">
    <rdf:RDF>
      <cc:Work
         rdf:about="">
        <dc:format>image/svg+xml</dc:format>
        <dc:type
           rdf:resource="http://purl.org/dc/dcmitype/StillImage" />
        <dc:title></dc:title>
      </cc:Work>
    </rdf:RDF>
  </metadata>
  <g
     inkscape:label="Layer 1"
     inkscape:groupmode="layer"
     id="layer1"
     transform="translate(-177.6877,-118.19574)">
    <g
       id="g878"
       transform="translate(-112.90283,-114.40808)">
      <g
         id="word-prev"
         style="opacity:0.997;stroke:#000000"
         transform="translate(-370.97231,204.0822)">
        <path
           style="color:#000000;font-style:normal;font-variant:normal;font-weight:normal;font-stretch:normal;font-size:medium;line-height:normal;font-family:sans-serif;font-variant-ligatures:normal;font-variant-position:normal;font-variant-caps:normal;font-variant-numeric:normal;font-variant-alternates:normal;font-variant-east-asian:normal;font-feature-settings:normal;font-variation-settings:normal;text-indent:0;text-align:start;text-decoration:none;text-decoration-line:none;text-decoration-style:solid;text-decoration-color:#000000;letter-spacing:normal;word-spacing:normal;text-transform:none;writing-mode:lr-tb;direction:ltr;text-orientation:mixed;dominant-baseline:auto;baseline-shift:baseline;text-anchor:start;white-space:normal;shape-padding:0;shape-margin:0;inline-size:0;clip-rule:nonzero;display:inline;overflow:visible;visibility:visible;opacity:1;isolation:auto;mix-blend-mode:normal;color-interpolation:sRGB;color-interpolation-filters:linearRGB;solid-color:#000000;solid-opacity:1;vector-effect:none;fill:#000000;fill-opacity:1;fill-rule:nonzero;stroke:none;stroke-linecap:butt;stroke-linejoin:miter;stroke-miterlimit:4;stroke-dasharray:none;stroke-dashoffset:0;stroke-opacity:1;color-rendering:auto;image-rendering:auto;shape-rendering:auto;text-rendering:auto;enable-background:accumulate;stop-color:#000000;stop-opacity:1"
           d="m 894.42033,60.394356 c -0.35722,-14.793767 -34.03412,-15.799953 -29.16086,4.083294 17.18307,70.10809 2.27516,113.01563 -16.0073,167.21391 -5.48104,16.24853 23.64512,24.12504 27.8044,5.29089 9.29591,-42.09392 12.93805,-67.29881 16.43945,-86.39764 4.20775,-22.95173 16.21767,-79.137399 52.9956,-67.767268 10.62577,3.285027 17.16316,12.867143 21.0921,26.680788 6.52505,22.94124 28.7542,2.06614 28.23932,-11.798679 -10.40743,8.784939 -13.98444,13.617549 -16.54426,-3.21364 -8.15468,-53.618196 -77.86022,-36.44007 -84.23569,5.785549 0.27344,-13.301869 -0.30172,-26.58183 -0.62276,-39.877204 z"
           id="prev-R"
           sodipodi:nodetypes="ssssssscscs" />
        <path
           style="color:#000000;font-style:normal;font-variant:normal;font-weight:normal;font-stretch:normal;font-size:medium;line-height:normal;font-family:sans-serif;font-variant-ligatures:normal;font-variant-position:normal;font-variant-caps:normal;font-variant-numeric:normal;font-variant-alternates:normal;font-variant-east-asian:normal;font-feature-settings:normal;font-variation-settings:normal;text-indent:0;text-align:start;text-decoration:none;text-decoration-line:none;text-decoration-style:solid;text-decoration-color:#000000;letter-spacing:normal;word-spacing:normal;text-transform:none;writing-mode:lr-tb;direction:ltr;text-orientation:mixed;dominant-baseline:auto;baseline-shift:baseline;text-anchor:start;white-space:normal;shape-padding:0;shape-margin:0;inline-size:0;clip-rule:nonzero;display:inline;overflow:visible;visibility:visible;opacity:1;isolation:auto;mix-blend-mode:normal;color-interpolation:sRGB;color-interpolation-filters:linearRGB;solid-color:#000000;solid-opacity:1;vector-effect:none;fill:#000000;fill-opacity:1;fill-rule:nonzero;stroke:none;stroke-linecap:butt;stroke-linejoin:miter;stroke-miterlimit:4;stroke-dasharray:none;stroke-dashoffset:0;stroke-opacity:1;color-rendering:auto;image-rendering:auto;shape-rendering:auto;text-rendering:auto;enable-background:accumulate;stop-color:#000000;stop-opacity:1"
           d="m 1089.8829,54.951853 c -53.4044,3.599777 -107.09036,51.719387 -108.76631,103.300507 -1.4213,43.74371 30.25421,77.725 68.17611,81.40666 20.6087,2.00079 37.5176,-3.78076 53.4657,-14.48204 20.4278,-13.70723 52.5975,-51.22147 43.7983,-78.12484 -15.4677,38.09501 -45.2642,60.71318 -54.9903,65.17673 -43.9164,20.15424 -87.129,-7.77294 -87.2545,-52.31911 -0.052,-18.59459 9.7239,-42.33999 27.9121,-57.33168 27.5977,-22.747466 70.38,-39.471257 78.6103,-17.609064 18.4565,49.026314 -60.579,65.943344 -81.2809,59.767354 -19.4909,-5.81473 -19.6019,29.90557 1.1221,25.73274 26.6635,-5.36877 57.0975,-9.39195 80.8576,-29.29442 31.197,-26.13195 27.844,-89.55904 -21.6502,-86.222837 z"
           id="prev-E"
           sodipodi:nodetypes="sssscssssssss" />
        <g
           id="prev-P">
          <path
             id="path2328-8"
             style="color:#000000;font-style:normal;font-variant:normal;font-weight:normal;font-stretch:normal;font-size:medium;line-height:normal;font-family:sans-serif;font-variant-ligatures:normal;font-variant-position:normal;font-variant-caps:normal;font-variant-numeric:normal;font-variant-alternates:normal;font-variant-east-asian:normal;font-feature-settings:normal;font-variation-settings:normal;text-indent:0;text-align:start;text-decoration:none;text-decoration-line:none;text-decoration-style:solid;text-decoration-color:#000000;letter-spacing:normal;word-spacing:normal;text-transform:none;writing-mode:lr-tb;direction:ltr;text-orientation:mixed;dominant-baseline:auto;baseline-shift:baseline;text-anchor:start;white-space:normal;shape-padding:0;shape-margin:0;inline-size:0;clip-rule:nonzero;display:inline;overflow:visible;visibility:visible;opacity:1;isolation:auto;mix-blend-mode:normal;color-interpolation:sRGB;color-interpolation-filters:linearRGB;solid-color:#000000;solid-opacity:1;vector-effect:none;fill:#000000;fill-opacity:1;fill-rule:nonzero;stroke:none;stroke-width:1;stroke-linecap:butt;stroke-linejoin:miter;stroke-miterlimit:4;stroke-dasharray:none;stroke-dashoffset:0;stroke-opacity:1;color-rendering:auto;image-rendering:auto;shape-rendering:auto;text-rendering:auto;enable-background:accumulate;stop-color:#000000;stop-opacity:1"
             d="m 745.01748,125.11822 c 0.23208,-27.057967 23.41469,-52.33008 60.11434,-46.883956 54.71486,8.11953 41.71996,151.101966 -20.51651,136.932896 -29.67062,-6.75496 -31.16937,-25.50778 -37.06113,-37.76534 -1.39072,19.51663 1.23587,42.62156 16.995,52.89113 35.32109,23.01732 78.25419,7.92394 92.23799,-51.69671 10.58778,-45.14154 0.008,-108.797497 -41.8642,-121.129117 -23.05499,-6.789764 -54.27644,2.210851 -69.94622,23.357734 0,0 0.55167,-0.961444 1.67137,-23.102221 0.55747,-11.023301 -25.92621,-16.616705 -25.41097,2.817291 1.96653,74.173723 3.77959,25.868787 1.29983,45.041063 -5.62895,43.52024 -42.81005,153.63643 -55.75355,201.94988 -9.30788,34.74299 3.0061,51.88383 18.48338,54.18425 20.85889,3.1003 33.25238,-14.62118 36.97919,-44.62023 6.46696,-52.05592 19.02338,-144.17703 22.77148,-191.97667 z m -17.91655,24.1711 c -13.51874,26.11614 -22.35246,191.01459 -37.97018,185.07575 -8.68445,-3.30238 37.26418,-166.15395 37.97018,-185.07575 z"
             sodipodi:nodetypes="csscssscsscsssccsc" />
          <path
             id="word-apple-leaf"
             d="m 762.13516,29.807334 c 5.3451,16.1102 -6.6187,39.10823 -20.236,45.07868 -9.0811,-9.9345 -0.7562,-31.08138 20.236,-45.07868 z"
             fill="#008000"
             style="opacity:0.997;stroke:none;stroke-width:0.999998" />
          <use
             x="0"
             y="0"
             xlink:href="#word-apple-leaf"
             id="use1695"
             transform="rotate(-91.310174,740.36584,87.452339)"
             width="100%"
             height="100%"
             style="opacity:0.997;stroke:none"
             inkscape:transform-center-x="-6.10345"
             inkscape:transform-center-y="-23.396558" />
        </g>
        <g
           id="prev-V"
           style="opacity:0.995"
           transform="translate(-5.0507627)">
          <path
             style="color:#000000;font-style:normal;font-variant:normal;font-weight:normal;font-stretch:normal;font-size:medium;line-height:normal;font-family:sans-serif;font-variant-ligatures:normal;font-variant-position:normal;font-variant-caps:normal;font-variant-numeric:normal;font-variant-alternates:normal;font-variant-east-asian:normal;font-feature-settings:normal;font-variation-settings:normal;text-indent:0;text-align:start;text-decoration:none;text-decoration-line:none;text-decoration-style:solid;text-decoration-color:#000000;letter-spacing:normal;word-spacing:normal;text-transform:none;writing-mode:lr-tb;direction:ltr;text-orientation:mixed;dominant-baseline:auto;baseline-shift:baseline;text-anchor:start;white-space:normal;shape-padding:0;shape-margin:0;inline-size:0;clip-rule:nonzero;display:inline;overflow:visible;visibility:visible;opacity:1;isolation:auto;mix-blend-mode:normal;color-interpolation:sRGB;color-interpolation-filters:linearRGB;solid-color:#000000;solid-opacity:1;vector-effect:none;fill:#000000;fill-opacity:1;fill-rule:nonzero;stroke:none;stroke-linecap:butt;stroke-linejoin:miter;stroke-miterlimit:4;stroke-dasharray:none;stroke-dashoffset:0;stroke-opacity:1;color-rendering:auto;image-rendering:auto;shape-rendering:auto;text-rendering:auto;enable-background:accumulate;stop-color:#000000;stop-opacity:1"
             d="m 1245.0897,81.879385 c -9.8131,73.316465 -34.3802,101.428855 -75.1243,136.569155 19.9855,-41.71622 14.1862,-116.95811 13.4838,-162.079985 -0.2344,-15.060124 -28.0346,-16.451014 -23.3051,4.04409 8.6139,37.328085 5.8022,111.073525 -12.3089,170.653485 -3.5127,11.55573 3.4842,24.05697 23.9483,8.1236 64.3551,-46.07096 85.1265,-99.40795 91.1605,-150.723062 2.145,-18.241036 7.4067,-27.305368 27.8392,-39.166753 -17.6825,-5.789716 -42.6349,9.728 -45.6935,32.57947 z"
             id="path2342-9"
             sodipodi:nodetypes="scssscscs" />
          <path
             id="use1709"
             d="m 1223.3019,35.374479 c 16.7513,2.73906 31.5741,24.00701 30.5456,38.84003 -13.0138,3.43571 -27.8849,-13.7498 -30.5456,-38.84003 z"
             fill="#008000"
             style="opacity:0.997;stroke:none;stroke-width:0.999998" />
        </g>
      </g>
    </g>
  </g>
</svg>
