<?xml version="1.0" encoding="UTF-8"?>
<svg width="300" height="300" version="1.1" viewBox="0 0 300 300" xmlns="http://www.w3.org/2000/svg" xmlns:cc="http://creativecommons.org/ns#" xmlns:dc="http://purl.org/dc/elements/1.1/" xmlns:rdf="http://www.w3.org/1999/02/22-rdf-syntax-ns#">
 <metadata>
  <rdf:RDF>
   <cc:Work rdf:about="">
    <dc:format>image/svg+xml</dc:format>
    <dc:type rdf:resource="http://purl.org/dc/dcmitype/StillImage"/>
    <dc:title/>
   </cc:Work>
  </rdf:RDF>
 </metadata>
 <g transform="translate(-2,26)" fill-rule="evenodd">
  <path d="m12.955 7.3356c91.765-9.1765 113.18 16.932 141.43 106.88 20.512 65.315 76.111 52.9 76.111 52.9l-9.7163-30.768c17.98 20.899 36.013 38.282 76.651 52.36-35.276 10.695-55.003 29.237-76.651 49.121l8.0969-29.149c-1.2457 4.388-88.446 4.828-116.06-63.156-25.199-62.049-15.465-102.87-97.163-94.464z"/>
  <path d="m12.353 225.21c69.093-1.6194 123.16-11.869 139.81-107.42 9.8054-56.277 76.807-54.484 79.349-58.298l-7.5571 28.609c22.072-23.6 45.218-39.029 71.792-49.121-21.586-10.21-55.618-32.993-74.491-49.121l11.875 28.069c-1.2457-4.388-85.84-10.776-117.67 77.73-32.842 91.309-44.614 85.055-103.64 85.287z"/>
 </g>
</svg>
